<svg width="37" height="37" viewBox="0 0 37 37" fill="none" xmlns="http://www.w3.org/2000/svg">
<path d="M20.8457 7.72952C22.2189 9.10279 22.2189 11.3295 20.8457 12.7027C19.4724 14.0759 17.2457 14.0759 15.8725 12.7027C14.4992 11.3295 14.4993 9.10279 15.8725 7.72952C17.2457 6.35625 19.4724 6.35625 20.8457 7.72952Z" stroke="#292929" stroke-width="3"/>
<path d="M29.3645 25.7001L28.8093 26.2553C27.2053 27.7852 25.3423 28.8956 23.3621 29.5927C21.7519 30.1541 20.0616 30.4379 18.3713 30.4379C16.6748 30.4441 14.9599 30.1603 13.3312 29.5927C11.5977 28.9944 9.95679 28.069 8.49473 26.8167L6.76741 25.0894C4.33682 22.2393 3.12769 18.7106 3.14002 15.1819L11.2523 15.2005C11.2523 17.0018 11.9185 18.8031 13.2695 20.1912L13.3436 20.2652C14.7316 21.6532 16.5515 22.3503 18.3713 22.3565C20.1727 22.3688 21.9678 21.6964 23.362 20.3516L23.4422 20.2714C24.8364 18.8772 25.5335 17.045 25.5335 15.2189L33.5471 15.2251C33.5471 19.0006 32.1591 22.7698 29.3645 25.7001Z" stroke="#292929" stroke-width="3" stroke-miterlimit="10"/>
</svg>
